<mxfile host="app.diagrams.net" modified="2021-04-01T05:38:23.848Z" agent="5.0 (Windows NT 10.0; Win64; x64) AppleWebKit/537.36 (KHTML, like Gecko) Chrome/89.0.4389.90 Safari/537.36" etag="qFtqu6qJH_MAnUjd9Y7D" version="14.4.7" type="github">
  <diagram id="MEoMApLvEtQtHPDve6Ls" name="第 1 页">
    <mxGraphModel dx="1422" dy="762" grid="1" gridSize="10" guides="1" tooltips="1" connect="1" arrows="1" fold="1" page="1" pageScale="1" pageWidth="827" pageHeight="1169" background="none" math="0" shadow="0">
      <root>
        <mxCell id="0" />
        <mxCell id="1" parent="0" />
        <mxCell id="lS9Wncv-ep41MwpDrUx7-1" value="手术室应用" style="rounded=1;whiteSpace=wrap;html=1;align=center;" parent="1" vertex="1">
          <mxGeometry x="290" y="120" width="190" height="60" as="geometry" />
        </mxCell>
        <mxCell id="lS9Wncv-ep41MwpDrUx7-10" style="edgeStyle=orthogonalEdgeStyle;rounded=0;orthogonalLoop=1;jettySize=auto;html=1;exitX=0.5;exitY=1;exitDx=0;exitDy=0;exitPerimeter=0;" parent="1" source="lS9Wncv-ep41MwpDrUx7-2" target="lS9Wncv-ep41MwpDrUx7-9" edge="1">
          <mxGeometry relative="1" as="geometry" />
        </mxCell>
        <mxCell id="lS9Wncv-ep41MwpDrUx7-2" value="sdk" style="shape=card;whiteSpace=wrap;html=1;size=20;" parent="1" vertex="1">
          <mxGeometry x="440" y="120" width="40" height="60" as="geometry" />
        </mxCell>
        <mxCell id="lS9Wncv-ep41MwpDrUx7-6" value="&lt;p style=&quot;line-height: 100%&quot;&gt;&lt;/p&gt;&lt;h1&gt;&lt;font style=&quot;font-size: 24px&quot;&gt;SDK调用&lt;/font&gt;&lt;/h1&gt;&lt;p style=&quot;font-size: 13px&quot;&gt;&lt;font style=&quot;font-size: 13px&quot;&gt;1,从平台获取appkey和appsecret,写入配置文件&lt;/font&gt;&lt;/p&gt;&lt;p style=&quot;font-size: 13px&quot;&gt;&lt;font style=&quot;font-size: 13px&quot;&gt;2,组装openapi请求:&lt;/font&gt;&lt;/p&gt;&lt;p style=&quot;font-size: 13px&quot;&gt;&lt;font style=&quot;font-size: 13px&quot;&gt;iotclient.getDevices(page,size)&lt;/font&gt;&lt;/p&gt;&lt;p style=&quot;font-size: 13px&quot;&gt;&lt;font style=&quot;font-size: 13px&quot;&gt;3,SDK转化成POST /openapi请求:&lt;/font&gt;&lt;/p&gt;&lt;p style=&quot;font-size: 13px&quot;&gt;&lt;font style=&quot;font-size: 13px&quot;&gt;{ name:device.get.page,version:v1,data:&amp;nbsp; appkey:&amp;nbsp;&lt;/font&gt;&lt;/p&gt;&lt;p style=&quot;font-size: 13px&quot;&gt;&lt;font style=&quot;font-size: 13px&quot;&gt;sign:aaaaaabbb }&lt;/font&gt;&lt;/p&gt;&lt;p style=&quot;font-size: 13px&quot;&gt;&lt;font style=&quot;font-size: 13px&quot;&gt;&lt;br&gt;&lt;/font&gt;&lt;/p&gt;&lt;p&gt;&lt;br&gt;&lt;/p&gt;&lt;p&gt;&lt;/p&gt;" style="text;html=1;strokeColor=#d6b656;fillColor=#fff2cc;spacing=5;spacingTop=-20;whiteSpace=wrap;overflow=hidden;rounded=0;" parent="1" vertex="1">
          <mxGeometry x="500" y="130" width="300" height="210" as="geometry" />
        </mxCell>
        <mxCell id="lS9Wncv-ep41MwpDrUx7-9" value="API-gateway&amp;nbsp; &amp;nbsp; &amp;nbsp; &amp;nbsp; &amp;nbsp; (/openapi )" style="rounded=0;whiteSpace=wrap;html=1;shadow=0;sketch=0;" parent="1" vertex="1">
          <mxGeometry x="130" y="360" width="660" height="110" as="geometry" />
        </mxCell>
        <mxCell id="lS9Wncv-ep41MwpDrUx7-11" value="&lt;h1&gt;gateway解析&lt;/h1&gt;&lt;p&gt;1,根据key,secret映射表验证sign正确&lt;/p&gt;&lt;p&gt;2,根据路由表拼接正确的url&lt;/p&gt;&lt;p&gt;3,请求真实服务&lt;/p&gt;&lt;p&gt;4,返回&lt;/p&gt;" style="text;html=1;strokeColor=#b46504;fillColor=#fad7ac;spacing=5;spacingTop=-20;whiteSpace=wrap;overflow=hidden;rounded=0;shadow=0;sketch=0;" parent="1" vertex="1">
          <mxGeometry x="540" y="500" width="250" height="150" as="geometry" />
        </mxCell>
        <mxCell id="lS9Wncv-ep41MwpDrUx7-12" value="thing-device" style="rounded=1;whiteSpace=wrap;html=1;shadow=0;sketch=0;" parent="1" vertex="1">
          <mxGeometry x="150" y="610" width="120" height="60" as="geometry" />
        </mxCell>
        <mxCell id="lS9Wncv-ep41MwpDrUx7-13" value="真实请求" style="endArrow=classic;html=1;exitX=0.5;exitY=0;exitDx=0;exitDy=0;startArrow=classic;startFill=1;entryX=0.5;entryY=1;entryDx=0;entryDy=0;" parent="1" source="lS9Wncv-ep41MwpDrUx7-12" target="lS9Wncv-ep41MwpDrUx7-9" edge="1">
          <mxGeometry width="50" height="50" relative="1" as="geometry">
            <mxPoint x="360" y="480" as="sourcePoint" />
            <mxPoint x="410" y="430" as="targetPoint" />
          </mxGeometry>
        </mxCell>
        <mxCell id="lS9Wncv-ep41MwpDrUx7-15" value="ks映射表" style="shape=table;html=1;whiteSpace=wrap;startSize=30;container=1;collapsible=0;childLayout=tableLayout;fontStyle=1;align=center;shadow=0;sketch=0;" parent="1" vertex="1">
          <mxGeometry x="130" y="360" width="120" height="110" as="geometry" />
        </mxCell>
        <mxCell id="lS9Wncv-ep41MwpDrUx7-16" value="" style="shape=partialRectangle;html=1;whiteSpace=wrap;collapsible=0;dropTarget=0;pointerEvents=0;fillColor=none;top=0;left=0;bottom=0;right=0;points=[[0,0.5],[1,0.5]];portConstraint=eastwest;" parent="lS9Wncv-ep41MwpDrUx7-15" vertex="1">
          <mxGeometry y="30" width="120" height="20" as="geometry" />
        </mxCell>
        <mxCell id="lS9Wncv-ep41MwpDrUx7-17" value="key" style="shape=partialRectangle;html=1;whiteSpace=wrap;connectable=0;fillColor=none;top=0;left=0;bottom=0;right=0;overflow=hidden;" parent="lS9Wncv-ep41MwpDrUx7-16" vertex="1">
          <mxGeometry width="40" height="20" as="geometry" />
        </mxCell>
        <mxCell id="lS9Wncv-ep41MwpDrUx7-18" value="secret" style="shape=partialRectangle;html=1;whiteSpace=wrap;connectable=0;fillColor=none;top=0;left=0;bottom=0;right=0;overflow=hidden;" parent="lS9Wncv-ep41MwpDrUx7-16" vertex="1">
          <mxGeometry x="40" width="40" height="20" as="geometry" />
        </mxCell>
        <mxCell id="lS9Wncv-ep41MwpDrUx7-19" value="公司id" style="shape=partialRectangle;html=1;whiteSpace=wrap;connectable=0;fillColor=none;top=0;left=0;bottom=0;right=0;overflow=hidden;" parent="lS9Wncv-ep41MwpDrUx7-16" vertex="1">
          <mxGeometry x="80" width="40" height="20" as="geometry" />
        </mxCell>
        <mxCell id="lS9Wncv-ep41MwpDrUx7-20" value="" style="shape=partialRectangle;html=1;whiteSpace=wrap;collapsible=0;dropTarget=0;pointerEvents=0;fillColor=none;top=0;left=0;bottom=0;right=0;points=[[0,0.5],[1,0.5]];portConstraint=eastwest;" parent="lS9Wncv-ep41MwpDrUx7-15" vertex="1">
          <mxGeometry y="50" width="120" height="20" as="geometry" />
        </mxCell>
        <mxCell id="lS9Wncv-ep41MwpDrUx7-21" value="" style="shape=partialRectangle;html=1;whiteSpace=wrap;connectable=0;fillColor=none;top=0;left=0;bottom=0;right=0;overflow=hidden;" parent="lS9Wncv-ep41MwpDrUx7-20" vertex="1">
          <mxGeometry width="40" height="20" as="geometry" />
        </mxCell>
        <mxCell id="lS9Wncv-ep41MwpDrUx7-22" value="" style="shape=partialRectangle;html=1;whiteSpace=wrap;connectable=0;fillColor=none;top=0;left=0;bottom=0;right=0;overflow=hidden;" parent="lS9Wncv-ep41MwpDrUx7-20" vertex="1">
          <mxGeometry x="40" width="40" height="20" as="geometry" />
        </mxCell>
        <mxCell id="lS9Wncv-ep41MwpDrUx7-23" value="" style="shape=partialRectangle;html=1;whiteSpace=wrap;connectable=0;fillColor=none;top=0;left=0;bottom=0;right=0;overflow=hidden;" parent="lS9Wncv-ep41MwpDrUx7-20" vertex="1">
          <mxGeometry x="80" width="40" height="20" as="geometry" />
        </mxCell>
        <mxCell id="lS9Wncv-ep41MwpDrUx7-28" value="" style="shape=partialRectangle;html=1;whiteSpace=wrap;collapsible=0;dropTarget=0;pointerEvents=0;fillColor=none;top=0;left=0;bottom=0;right=0;points=[[0,0.5],[1,0.5]];portConstraint=eastwest;" parent="lS9Wncv-ep41MwpDrUx7-15" vertex="1">
          <mxGeometry y="70" width="120" height="20" as="geometry" />
        </mxCell>
        <mxCell id="lS9Wncv-ep41MwpDrUx7-29" value="" style="shape=partialRectangle;html=1;whiteSpace=wrap;connectable=0;fillColor=none;top=0;left=0;bottom=0;right=0;overflow=hidden;" parent="lS9Wncv-ep41MwpDrUx7-28" vertex="1">
          <mxGeometry width="40" height="20" as="geometry" />
        </mxCell>
        <mxCell id="lS9Wncv-ep41MwpDrUx7-30" value="" style="shape=partialRectangle;html=1;whiteSpace=wrap;connectable=0;fillColor=none;top=0;left=0;bottom=0;right=0;overflow=hidden;" parent="lS9Wncv-ep41MwpDrUx7-28" vertex="1">
          <mxGeometry x="40" width="40" height="20" as="geometry" />
        </mxCell>
        <mxCell id="lS9Wncv-ep41MwpDrUx7-31" value="" style="shape=partialRectangle;html=1;whiteSpace=wrap;connectable=0;fillColor=none;top=0;left=0;bottom=0;right=0;overflow=hidden;" parent="lS9Wncv-ep41MwpDrUx7-28" vertex="1">
          <mxGeometry x="80" width="40" height="20" as="geometry" />
        </mxCell>
        <mxCell id="lS9Wncv-ep41MwpDrUx7-24" value="" style="shape=partialRectangle;html=1;whiteSpace=wrap;collapsible=0;dropTarget=0;pointerEvents=0;fillColor=none;top=0;left=0;bottom=0;right=0;points=[[0,0.5],[1,0.5]];portConstraint=eastwest;" parent="lS9Wncv-ep41MwpDrUx7-15" vertex="1">
          <mxGeometry y="90" width="120" height="20" as="geometry" />
        </mxCell>
        <mxCell id="lS9Wncv-ep41MwpDrUx7-25" value="" style="shape=partialRectangle;html=1;whiteSpace=wrap;connectable=0;fillColor=none;top=0;left=0;bottom=0;right=0;overflow=hidden;" parent="lS9Wncv-ep41MwpDrUx7-24" vertex="1">
          <mxGeometry width="40" height="20" as="geometry" />
        </mxCell>
        <mxCell id="lS9Wncv-ep41MwpDrUx7-26" value="" style="shape=partialRectangle;html=1;whiteSpace=wrap;connectable=0;fillColor=none;top=0;left=0;bottom=0;right=0;overflow=hidden;" parent="lS9Wncv-ep41MwpDrUx7-24" vertex="1">
          <mxGeometry x="40" width="40" height="20" as="geometry" />
        </mxCell>
        <mxCell id="lS9Wncv-ep41MwpDrUx7-27" value="" style="shape=partialRectangle;html=1;whiteSpace=wrap;connectable=0;fillColor=none;top=0;left=0;bottom=0;right=0;overflow=hidden;" parent="lS9Wncv-ep41MwpDrUx7-24" vertex="1">
          <mxGeometry x="80" width="40" height="20" as="geometry" />
        </mxCell>
        <mxCell id="lS9Wncv-ep41MwpDrUx7-36" value="路由表" style="shape=table;html=1;whiteSpace=wrap;startSize=30;container=1;collapsible=0;childLayout=tableLayout;fontStyle=1;align=center;shadow=0;sketch=0;" parent="1" vertex="1">
          <mxGeometry x="580" y="360" width="210" height="110" as="geometry" />
        </mxCell>
        <mxCell id="lS9Wncv-ep41MwpDrUx7-37" value="" style="shape=partialRectangle;html=1;whiteSpace=wrap;collapsible=0;dropTarget=0;pointerEvents=0;fillColor=none;top=0;left=0;bottom=0;right=0;points=[[0,0.5],[1,0.5]];portConstraint=eastwest;" parent="lS9Wncv-ep41MwpDrUx7-36" vertex="1">
          <mxGeometry y="30" width="210" height="20" as="geometry" />
        </mxCell>
        <mxCell id="lS9Wncv-ep41MwpDrUx7-38" value="name" style="shape=partialRectangle;html=1;whiteSpace=wrap;connectable=0;fillColor=none;top=0;left=0;bottom=0;right=0;overflow=hidden;" parent="lS9Wncv-ep41MwpDrUx7-37" vertex="1">
          <mxGeometry width="50" height="20" as="geometry" />
        </mxCell>
        <mxCell id="lS9Wncv-ep41MwpDrUx7-39" value="path" style="shape=partialRectangle;html=1;whiteSpace=wrap;connectable=0;fillColor=none;top=0;left=0;bottom=0;right=0;overflow=hidden;" parent="lS9Wncv-ep41MwpDrUx7-37" vertex="1">
          <mxGeometry x="50" width="30" height="20" as="geometry" />
        </mxCell>
        <mxCell id="lS9Wncv-ep41MwpDrUx7-40" value="service_id" style="shape=partialRectangle;html=1;whiteSpace=wrap;connectable=0;fillColor=none;top=0;left=0;bottom=0;right=0;overflow=hidden;" parent="lS9Wncv-ep41MwpDrUx7-37" vertex="1">
          <mxGeometry x="80" width="70" height="20" as="geometry" />
        </mxCell>
        <mxCell id="lS9Wncv-ep41MwpDrUx7-54" value="method" style="shape=partialRectangle;html=1;whiteSpace=wrap;connectable=0;fillColor=none;top=0;left=0;bottom=0;right=0;overflow=hidden;" parent="lS9Wncv-ep41MwpDrUx7-37" vertex="1">
          <mxGeometry x="150" width="60" height="20" as="geometry" />
        </mxCell>
        <mxCell id="lS9Wncv-ep41MwpDrUx7-41" value="" style="shape=partialRectangle;html=1;whiteSpace=wrap;collapsible=0;dropTarget=0;pointerEvents=0;fillColor=none;top=0;left=0;bottom=0;right=0;points=[[0,0.5],[1,0.5]];portConstraint=eastwest;" parent="lS9Wncv-ep41MwpDrUx7-36" vertex="1">
          <mxGeometry y="50" width="210" height="20" as="geometry" />
        </mxCell>
        <mxCell id="lS9Wncv-ep41MwpDrUx7-42" value="" style="shape=partialRectangle;html=1;whiteSpace=wrap;connectable=0;fillColor=none;top=0;left=0;bottom=0;right=0;overflow=hidden;" parent="lS9Wncv-ep41MwpDrUx7-41" vertex="1">
          <mxGeometry width="50" height="20" as="geometry" />
        </mxCell>
        <mxCell id="lS9Wncv-ep41MwpDrUx7-43" value="" style="shape=partialRectangle;html=1;whiteSpace=wrap;connectable=0;fillColor=none;top=0;left=0;bottom=0;right=0;overflow=hidden;" parent="lS9Wncv-ep41MwpDrUx7-41" vertex="1">
          <mxGeometry x="50" width="30" height="20" as="geometry" />
        </mxCell>
        <mxCell id="lS9Wncv-ep41MwpDrUx7-44" value="" style="shape=partialRectangle;html=1;whiteSpace=wrap;connectable=0;fillColor=none;top=0;left=0;bottom=0;right=0;overflow=hidden;" parent="lS9Wncv-ep41MwpDrUx7-41" vertex="1">
          <mxGeometry x="80" width="70" height="20" as="geometry" />
        </mxCell>
        <mxCell id="lS9Wncv-ep41MwpDrUx7-55" style="shape=partialRectangle;html=1;whiteSpace=wrap;connectable=0;fillColor=none;top=0;left=0;bottom=0;right=0;overflow=hidden;" parent="lS9Wncv-ep41MwpDrUx7-41" vertex="1">
          <mxGeometry x="150" width="60" height="20" as="geometry" />
        </mxCell>
        <mxCell id="lS9Wncv-ep41MwpDrUx7-45" value="" style="shape=partialRectangle;html=1;whiteSpace=wrap;collapsible=0;dropTarget=0;pointerEvents=0;fillColor=none;top=0;left=0;bottom=0;right=0;points=[[0,0.5],[1,0.5]];portConstraint=eastwest;" parent="lS9Wncv-ep41MwpDrUx7-36" vertex="1">
          <mxGeometry y="70" width="210" height="20" as="geometry" />
        </mxCell>
        <mxCell id="lS9Wncv-ep41MwpDrUx7-46" value="" style="shape=partialRectangle;html=1;whiteSpace=wrap;connectable=0;fillColor=none;top=0;left=0;bottom=0;right=0;overflow=hidden;" parent="lS9Wncv-ep41MwpDrUx7-45" vertex="1">
          <mxGeometry width="50" height="20" as="geometry" />
        </mxCell>
        <mxCell id="lS9Wncv-ep41MwpDrUx7-47" value="" style="shape=partialRectangle;html=1;whiteSpace=wrap;connectable=0;fillColor=none;top=0;left=0;bottom=0;right=0;overflow=hidden;" parent="lS9Wncv-ep41MwpDrUx7-45" vertex="1">
          <mxGeometry x="50" width="30" height="20" as="geometry" />
        </mxCell>
        <mxCell id="lS9Wncv-ep41MwpDrUx7-48" value="" style="shape=partialRectangle;html=1;whiteSpace=wrap;connectable=0;fillColor=none;top=0;left=0;bottom=0;right=0;overflow=hidden;" parent="lS9Wncv-ep41MwpDrUx7-45" vertex="1">
          <mxGeometry x="80" width="70" height="20" as="geometry" />
        </mxCell>
        <mxCell id="lS9Wncv-ep41MwpDrUx7-56" style="shape=partialRectangle;html=1;whiteSpace=wrap;connectable=0;fillColor=none;top=0;left=0;bottom=0;right=0;overflow=hidden;" parent="lS9Wncv-ep41MwpDrUx7-45" vertex="1">
          <mxGeometry x="150" width="60" height="20" as="geometry" />
        </mxCell>
        <mxCell id="lS9Wncv-ep41MwpDrUx7-49" value="" style="shape=partialRectangle;html=1;whiteSpace=wrap;collapsible=0;dropTarget=0;pointerEvents=0;fillColor=none;top=0;left=0;bottom=0;right=0;points=[[0,0.5],[1,0.5]];portConstraint=eastwest;" parent="lS9Wncv-ep41MwpDrUx7-36" vertex="1">
          <mxGeometry y="90" width="210" height="20" as="geometry" />
        </mxCell>
        <mxCell id="lS9Wncv-ep41MwpDrUx7-50" value="" style="shape=partialRectangle;html=1;whiteSpace=wrap;connectable=0;fillColor=none;top=0;left=0;bottom=0;right=0;overflow=hidden;" parent="lS9Wncv-ep41MwpDrUx7-49" vertex="1">
          <mxGeometry width="50" height="20" as="geometry" />
        </mxCell>
        <mxCell id="lS9Wncv-ep41MwpDrUx7-51" value="" style="shape=partialRectangle;html=1;whiteSpace=wrap;connectable=0;fillColor=none;top=0;left=0;bottom=0;right=0;overflow=hidden;" parent="lS9Wncv-ep41MwpDrUx7-49" vertex="1">
          <mxGeometry x="50" width="30" height="20" as="geometry" />
        </mxCell>
        <mxCell id="lS9Wncv-ep41MwpDrUx7-52" value="" style="shape=partialRectangle;html=1;whiteSpace=wrap;connectable=0;fillColor=none;top=0;left=0;bottom=0;right=0;overflow=hidden;" parent="lS9Wncv-ep41MwpDrUx7-49" vertex="1">
          <mxGeometry x="80" width="70" height="20" as="geometry" />
        </mxCell>
        <mxCell id="lS9Wncv-ep41MwpDrUx7-57" style="shape=partialRectangle;html=1;whiteSpace=wrap;connectable=0;fillColor=none;top=0;left=0;bottom=0;right=0;overflow=hidden;" parent="lS9Wncv-ep41MwpDrUx7-49" vertex="1">
          <mxGeometry x="150" width="60" height="20" as="geometry" />
        </mxCell>
      </root>
    </mxGraphModel>
  </diagram>
</mxfile>
